<?xml version="1.0" encoding="UTF-8"?>
<svg width="27.751mm" height="27.752mm" version="1.1" viewBox="0 0 27.751 27.752" xmlns="http://www.w3.org/2000/svg">
<g transform="translate(-40.421 -44.355)" fill="#333">
<path d="m54.297 44.355c-1.033 0-2.0386 0.11634-3.0069 0.33052v13.555c0 1.6616 1.3538 3.0158 3.0148 3.0158 1.6609 0 3.0152-1.3542 3.0152-3.0157 0-1.5926-1.2468-2.9039-2.8143-3.0083v-2.4145c2.8961 0.10626 5.2259 2.501 5.2259 5.4228 0 2.9892-2.438 5.4276-5.4268 5.4276-2.9902-7.9e-5 -5.4274-2.4384-5.4274-5.4276v-12.787c-0.34311 0.14557-0.67733 0.30721-1.0056 0.47911l8e-5 12.308c2.64e-4 3.5436 2.8907 6.4331 6.4329 6.4331 3.5435-1.59e-4 6.4327-2.8895 6.4327-6.433 0-3.4747-2.7808-6.3215-6.2318-6.4285v-2.4133c4.7792 0.108 8.6431 4.0377 8.6431 8.8417 5.3e-5 4.872-3.9726 8.8451-8.844 8.8451-4.8719-1.58e-4 -8.8452-3.9731-8.8452-8.8451v-10.708c-3.0769 2.5453-5.038 6.3925-5.038 10.697 0 7.6639 6.2123 13.877 13.875 13.877 7.665 0 13.876-6.2127 13.876-13.877 0-7.6635-6.2112-13.876-13.876-13.876z" fill="#333" fill-rule="evenodd" stroke-width=".26458"/>
</g>
</svg>
