<?xml version="1.0" encoding="UTF-8"?>
<svg enable-background="new 0 0 474.151 474.151" version="1.1" viewBox="0 0 474.15 474.15" xml:space="preserve" xmlns="http://www.w3.org/2000/svg">
	<g fill="#333">
		<path d="M0,237.077c0,93.809,54.53,174.922,133.626,213.344L20.528,140.625C7.366,170.077,0,202.715,0,237.077z" fill="#333"/>
	</g>
		<path d="m241.25 257.79-71.154 206.68c21.236 6.219 43.729 9.663 66.968 9.663 27.613 0 54.103-4.784 78.738-13.436-0.616-1.028-1.209-2.119-1.7-3.288l-72.852-199.62z" fill="#333"/>
		<path d="m397.11 225.09c0-29.295-10.551-49.573-19.554-65.348-12.017-19.537-23.286-36.06-23.286-55.622 0-21.75 16.523-42.045 39.809-42.045 1.068 0 2.074 0.141 3.063 0.188-42.154-38.632-98.353-62.246-160.08-62.246-82.828 0-153.09 41.813-195.9 103.6 5.557 0.203 76.252 0.498 76.252 0.498 12.78-0.716 14.291 18.051 1.534 19.563 0 0-12.852 1.496-27.145 2.244l86.335 256.75 51.874-155.56-36.927-101.19c-12.771-0.748-24.853-1.06-24.853-1.06-12.772-0.748-11.278-18.377 1.48-18.377h125.65c12.773 0 14.271 16.865 1.496 18.377 0 0-12.851 0.903-27.12 1.652l85.688 254.52 23.629-79.15c12.035-30.806 18.058-56.486 18.058-76.796z" fill="#333"/>
	<g fill="#333">
		<path d="m445.1 123.34c1.021 7.576 1.605 15.682 1.605 24.395 0 24.042-4.504 51.07-18.049 84.885l-72.401 209.34c70.5-41.088 117.9-117.43 117.9-204.88 0-41.22-10.537-79.969-29.054-113.74z" fill="#333"/>
	</g>
</svg>
