<svg width="39" height="39" viewBox="0 0 39 39" fill="none" xmlns="http://www.w3.org/2000/svg">
  <g clip-path="url(#clip0)">
    <path
      d="M38.0171 19.0085C38.0171 8.5093 29.5078 0 19.0085 0C8.5093 0 0 8.5093 0 19.0085C0 28.498 6.95 36.3613 16.0385 37.7869V24.5032H11.2121V19.0085H16.0385V14.8207C16.0385 10.0575 18.8749 7.42521 23.2186 7.42521C25.2977 7.42521 27.4733 7.79647 27.4733 7.79647V12.4744H25.0749C22.7137 12.4744 21.9786 13.9408 21.9786 15.4444V19.0085H27.2505L26.4078 24.5032H21.9786V37.7869C31.0671 36.3613 38.0171 28.498 38.0171 19.0085Z"
      fill="#3D5A96"/>
    <path
      d="M26.4078 24.5033L27.2505 19.0086H21.9786V15.4445C21.9786 13.9409 22.7137 12.4744 25.075 12.4744H27.4733V7.79655C27.4733 7.79655 25.2977 7.42529 23.2186 7.42529C18.8749 7.42529 16.0385 10.0575 16.0385 14.8208V19.0086H11.2121V24.5033H16.0385V37.787C17.0075 37.9392 17.9987 38.0172 19.0085 38.0172C20.0184 38.0172 21.0096 37.9392 21.9786 37.787V24.5033H26.4078Z"
      fill="white"/>
  </g>
  <defs>
    <clipPath id="clip0">
      <rect width="38.0171" height="38.0171" fill="white"/>
    </clipPath>
  </defs>
</svg>
