<svg width="38" height="39" viewBox="0 0 38 39" fill="none" xmlns="http://www.w3.org/2000/svg">
  <path
    d="M0 19.0085C0 8.51042 8.49192 0 18.9672 0C29.4425 0 37.9344 8.51042 37.9344 19.0085C37.9344 29.5067 29.4425 38.0171 18.9672 38.0171C8.49192 38.0171 0 29.5067 0 19.0085Z"
    fill="url(#paint0_linear)"/>
  <mask id="mask0" mask-type="alpha" maskUnits="userSpaceOnUse" x="0" y="0" width="38" height="39">
    <path fill-rule="evenodd" clip-rule="evenodd"
          d="M0 19.0085C0 8.51042 8.49192 0 18.9672 0C29.4425 0 37.9344 8.51042 37.9344 19.0085C37.9344 29.5067 29.4425 38.0171 18.9672 38.0171C8.49192 38.0171 0 29.5067 0 19.0085Z"
          fill="white"/>
  </mask>
  <g mask="url(#mask0)">
    <path fill-rule="evenodd" clip-rule="evenodd"
          d="M18.9683 7.72217C15.9097 7.72217 15.5259 7.73557 14.3246 7.79036C13.1257 7.84538 12.3073 8.0356 11.5913 8.31471C10.8505 8.60298 10.2222 8.9886 9.59625 9.61617C8.96981 10.2435 8.58503 10.8732 8.29644 11.6153C8.01724 12.3331 7.8272 13.1535 7.77324 14.3546C7.71951 15.5585 7.70543 15.9434 7.70543 19.0086C7.70543 22.0738 7.71904 22.4573 7.77347 23.6612C7.82861 24.8627 8.01842 25.6829 8.29668 26.4005C8.58456 27.1428 8.96934 27.7725 9.59555 28.3999C10.2213 29.0277 10.8496 29.4142 11.5898 29.7025C12.3064 29.9816 13.125 30.1718 14.3237 30.2268C15.5249 30.2816 15.9085 30.295 18.9669 30.295C22.0256 30.295 22.4083 30.2816 23.6096 30.2268C24.8085 30.1718 25.6278 29.9816 26.3443 29.7025C27.0848 29.4142 27.7122 29.0277 28.3379 28.3999C28.9644 27.7725 29.3492 27.1428 29.6377 26.4007C29.9146 25.6829 30.1046 24.8625 30.1609 23.6614C30.2149 22.4575 30.229 22.0738 30.229 19.0086C30.229 15.9434 30.2149 15.5587 30.1609 14.3548C30.1046 13.1533 29.9146 12.3331 29.6377 11.6155C29.3492 10.8732 28.9644 10.2435 28.3379 9.61617C27.7115 8.98836 27.085 8.60274 26.3436 8.31471C25.6257 8.0356 24.8069 7.84538 23.6079 7.79036C22.4067 7.73557 22.0242 7.72217 18.9647 7.72217H18.9683ZM17.958 9.75608C18.1542 9.75577 18.3652 9.75586 18.5929 9.75597L18.9683 9.75608C21.9752 9.75608 22.3316 9.76689 23.519 9.82097C24.6171 9.87129 25.213 10.0552 25.61 10.2097C26.1355 10.4142 26.5102 10.6588 26.9042 11.0538C27.2983 11.4488 27.5423 11.825 27.7469 12.3517C27.9011 12.7491 28.0848 13.3463 28.1348 14.4468C28.1887 15.6365 28.2005 15.9939 28.2005 19.006C28.2005 22.0181 28.1887 22.3755 28.1348 23.5653C28.0845 24.6657 27.9011 25.2629 27.7469 25.6603C27.5428 26.187 27.2983 26.5621 26.9042 26.9568C26.51 27.3519 26.1358 27.5964 25.61 27.801C25.2135 27.9562 24.6171 28.1396 23.519 28.1899C22.3318 28.244 21.9752 28.2557 18.9683 28.2557C15.9611 28.2557 15.6047 28.244 14.4175 28.1899C13.3195 28.1391 12.7236 27.9552 12.3263 27.8007C11.8008 27.5962 11.4254 27.3516 11.0312 26.9566C10.637 26.5616 10.393 26.1863 10.1884 25.6594C10.0343 25.262 9.85059 24.6648 9.80062 23.5643C9.74665 22.3745 9.73586 22.0171 9.73586 19.0032C9.73586 15.9892 9.74665 15.6337 9.80062 14.4439C9.85083 13.3435 10.0343 12.7463 10.1884 12.3484C10.3926 11.8217 10.637 11.4455 11.0312 11.0505C11.4254 10.6555 11.8008 10.4109 12.3263 10.2059C12.7233 10.0507 13.3195 9.8673 14.4175 9.81674C15.4564 9.76971 15.8591 9.75561 17.958 9.75325V9.75608ZM23.6284 12.984C23.6284 12.236 24.2337 11.6301 24.9798 11.6301V11.6296C25.7259 11.6296 26.3312 12.2363 26.3312 12.984C26.3312 13.7317 25.7259 14.3384 24.9798 14.3384C24.2337 14.3384 23.6284 13.7317 23.6284 12.984ZM18.9681 13.2126C15.7743 13.2127 13.1849 15.8078 13.1849 19.0086C13.1849 22.2095 15.7744 24.8035 18.9683 24.8035C22.1622 24.8035 24.7508 22.2095 24.7508 19.0086C24.7508 15.8077 22.162 13.2126 18.9681 13.2126ZM22.7223 19.0086C22.7223 16.9308 21.0414 15.2465 18.9683 15.2465C16.8949 15.2465 15.2143 16.9308 15.2143 19.0086C15.2143 21.0863 16.8949 22.7708 18.9683 22.7708C21.0414 22.7708 22.7223 21.0863 22.7223 19.0086Z"
          fill="white"/>
  </g>
  <defs>
    <linearGradient id="paint0_linear" x1="5.13695" y1="32.8689" x2="34.0457" y2="4.02303"
                    gradientUnits="userSpaceOnUse">
      <stop stop-color="#FDBF65"/>
      <stop offset="0.427083" stop-color="#FC6644"/>
      <stop offset="0.708333" stop-color="#E93385"/>
      <stop offset="1" stop-color="#984EBA"/>
    </linearGradient>
  </defs>
</svg>
