<svg width="38" height="39" viewBox="0 0 38 39" fill="none" xmlns="http://www.w3.org/2000/svg">
  <path
    d="M0 19.0085C0 8.51042 8.4919 0 18.9672 0C29.4425 0 37.9344 8.51042 37.9344 19.0085C37.9344 29.5067 29.4425 38.0171 18.9672 38.0171C8.4919 38.0171 0 29.5067 0 19.0085Z"
    fill="#F68634"/>
  <path
    d="M21.318 24.1252L24.5659 27.3819C25.2313 28.0475 25.2313 29.1287 24.5659 29.795C23.9012 30.4614 22.8239 30.4614 22.1599 29.795L18.9666 26.5949L15.7761 29.795C15.4434 30.1279 15.0074 30.2945 14.5715 30.2945C14.1363 30.2945 13.701 30.1279 13.3684 29.795C12.7037 29.1287 12.7037 28.0482 13.3677 27.3819L16.6159 24.1252C15.4333 23.8551 14.2927 23.3853 13.2422 22.7245C12.4471 22.222 12.2083 21.1691 12.7093 20.3713C13.2088 19.5725 14.2593 19.332 15.0558 19.8346C17.4342 21.3346 20.4983 21.335 22.8781 19.8346C23.6746 19.332 24.7248 19.5725 25.2253 20.3713C25.7263 21.1684 25.4868 22.222 24.6917 22.7245C23.6412 23.386 22.5006 23.8551 21.318 24.1252Z"
    fill="white"/>
  <path fill-rule="evenodd" clip-rule="evenodd"
        d="M13.1425 13.5474C13.1425 16.7587 15.7483 19.3709 18.9525 19.3709C22.1573 19.3709 24.7624 16.7587 24.7624 13.5474C24.7624 10.3351 22.1573 7.72217 18.9525 7.72217C15.7483 7.72217 13.1425 10.3351 13.1425 13.5474ZM21.3581 13.5474C21.3581 12.2174 20.279 11.136 18.9525 11.136C17.627 11.136 16.5469 12.2174 16.5469 13.5474C16.5469 14.8763 17.627 15.9585 18.9525 15.9585C20.279 15.9585 21.3581 14.8763 21.3581 13.5474Z"
        fill="white"/>
</svg>
