<svg width="38" height="39" viewBox="0 0 38 39" fill="none" xmlns="http://www.w3.org/2000/svg">
  <path
    d="M18.9672 38.0171C29.4425 38.0171 37.9344 29.5067 37.9344 19.0085C37.9344 8.51042 29.4425 0 18.9672 0C8.4919 0 0 8.51042 0 19.0085C0 29.5067 8.4919 38.0171 18.9672 38.0171Z"
    fill="url(#paint0_linear)"/>
  <path
    d="M7.06392 19.9385C9.28119 18.7145 11.7562 17.6929 14.0688 16.6662C18.0474 14.9844 22.0417 13.3317 26.0763 11.7932C26.8613 11.531 28.2718 11.2747 28.4101 12.4405C28.3343 14.0908 28.0228 15.7314 27.8091 17.3719C27.2668 20.9798 26.6399 24.5752 26.0286 28.1712C25.818 29.369 24.3207 29.989 23.3627 29.2225C21.0604 27.664 18.7404 26.1206 16.4675 24.526C15.723 23.7678 16.4134 22.679 17.0784 22.1375C18.9746 20.2647 20.9856 18.6735 22.7827 16.7039C23.2675 15.5308 21.8352 16.5195 21.3627 16.8224C18.7667 18.6153 16.2343 20.5176 13.4973 22.0932C12.0993 22.8645 10.4698 22.2054 9.07242 21.775C7.81949 21.2551 5.98345 20.7313 7.06379 19.9386L7.06392 19.9385Z"
    fill="white"/>
  <defs>
    <linearGradient id="paint0_linear" x1="25.2912" y1="6.33745" x2="15.7726" y2="28.4978"
                    gradientUnits="userSpaceOnUse">
      <stop stop-color="#37AEE2"/>
      <stop offset="1" stop-color="#1E96C8"/>
    </linearGradient>
  </defs>
</svg>
