<svg width="39" height="39" viewBox="0 0 39 39" fill="none" xmlns="http://www.w3.org/2000/svg">
  <circle cx="19.0085" cy="19.0085" r="19.0085" fill="#4981C0"/>
  <path fill-rule="evenodd" clip-rule="evenodd"
        d="M30.3477 13.9773C30.5235 13.4503 30.3478 13.0669 29.5694 13.0669H26.9831C26.3302 13.0669 26.0289 13.4023 25.8531 13.7617C25.8531 13.7617 24.5223 16.8283 22.6642 18.8168C22.0616 19.3918 21.7854 19.5835 21.4589 19.5835C21.2832 19.5835 21.0572 19.3918 21.0572 18.8648V13.9534C21.0572 13.3305 20.8563 13.043 20.3039 13.043H16.2361C15.8344 13.043 15.5833 13.3305 15.5833 13.618C15.5833 14.2169 16.5123 14.3607 16.6128 16.0377V19.6793C16.6128 20.4699 16.4621 20.6137 16.1357 20.6137C15.2568 20.6137 13.1225 17.5231 11.8419 14.0013C11.5908 13.3065 11.3397 13.043 10.6869 13.043H8.07546C7.32217 13.043 7.19662 13.3784 7.19662 13.7377C7.19662 14.3846 8.07546 17.6429 11.2895 21.9553C13.4238 24.9022 16.4621 26.4834 19.1991 26.4834C20.8563 26.4834 21.0572 26.124 21.0572 25.5251V23.297C21.0572 22.5782 21.2078 22.4585 21.7351 22.4585C22.1118 22.4585 22.7897 22.6501 24.3214 24.0636C26.0791 25.7407 26.3804 26.5074 27.3597 26.5074H29.946C30.6993 26.5074 31.0508 26.148 30.8499 25.4532C30.624 24.7584 29.7702 23.7522 28.6654 22.5543C28.0628 21.8835 27.1588 21.1408 26.8826 20.7814C26.506 20.3022 26.6064 20.1106 26.8826 19.6793C26.8575 19.6793 30.0213 15.4148 30.3477 13.9773Z"
        fill="white"/>
</svg>
